<svg
    xmlns="http://www.w3.org/2000/svg"
    viewBox="0 0 512 512"
    width="512"
    height="512"
    fill="#FFFFFF"
    preserveAspectRatio="xMidYMid meet"
>
  <g transform="translate(0,512) scale(0.1,-0.1)">
    <path d="M3890 4840 l-195 -5 -55 -32 c-110 -63 -186 -104 -220 -120 -19 -8
      -37 -18 -40 -22 -5 -7 -93 -57 -210 -119 -36 -18 -67 -37 -70 -40 -3 -4 -21
      -15 -40 -24 -19 -10 -62 -32 -95 -51 l-60 -33 -3 -277 c-2 -240 0 -278 13
      -283 14 -6 33 3 190 86 39 20 138 72 220 115 83 43 164 87 180 97 47 28 54 31
      70 24 13 -5 15 -152 15 -1246 l0 -1240 43 -1 c247 -6 556 -4 570 3 16 8 17 92
      17 1587 l0 1578 -38 7 c-20 3 -50 5 -67 4 -16 -1 -118 -5 -225 -8z"/>
    <path d="M1613 3520 l-352 -5 -133 -132 c-73 -72 -190 -189 -261 -260 l-127
      -130 0 -1048 0 -1048 114 -116 c62 -64 181 -185 263 -269 l150 -152 700 0 700
      0 36 38 c20 20 81 81 136 136 56 54 101 102 101 107 0 5 4 9 9 9 4 0 61 52
      125 115 l117 115 1 1058 1 1059 -256 256 c-140 140 -264 260 -275 266 -21 11
      -339 12 -1049 1z m769 -546 c7 -9 48 -53 90 -98 l77 -82 1 -859 1 -858 -88
      -88 -88 -88 -405 -1 -406 0 -74 72 c-42 40 -88 88 -103 106 l-27 34 0 836 0
      836 103 103 103 103 402 0 c359 0 403 -2 414 -16z"/>
  </g>
</svg>
